<svg width="15" height="15" viewBox="0 0 15 15" fill="none" xmlns="http://www.w3.org/2000/svg">
<path d="M6.33398 1.96931L6.94102 1.36228C7.19805 1.10525 7.61367 1.10525 7.86797 1.36228L13.1836 6.67517C13.4406 6.93221 13.4406 7.34783 13.1836 7.60213L7.86797 12.9178C7.61094 13.1748 7.19531 13.1748 6.94102 12.9178L6.33398 12.3107C6.07422 12.051 6.07969 11.6271 6.34492 11.3728L9.63984 8.23377H1.78125C1.41758 8.23377 1.125 7.94119 1.125 7.57752V6.70252C1.125 6.33885 1.41758 6.04627 1.78125 6.04627H9.63984L6.34492 2.90721C6.07695 2.65291 6.07148 2.22908 6.33398 1.96931Z" fill="#171A8F"/>
</svg>
